<?xml version="1.0" encoding="UTF-8" standalone="no"?>
<!-- Created with Inkscape (http://www.inkscape.org/) -->

<svg
   width="150mm"
   height="150mm"
   viewBox="0 0 150 150"
   version="1.1"
   id="svg1"
   xmlns="http://www.w3.org/2000/svg"
   xmlns:svg="http://www.w3.org/2000/svg">
  <defs
     id="defs1" />
  <g
     id="layer1"
     style="display:inline">
    <text
       xml:space="preserve"
       style="font-style:normal;font-variant:normal;font-weight:normal;font-stretch:normal;font-size:16.9878px;font-family:'SPACE ARMOR';-inkscape-font-specification:'SPACE ARMOR';letter-spacing:1.59259px;writing-mode:lr-tb;direction:ltr;fill:#313131;fill-opacity:1;stroke-width:0.286394"
       x="35.225525"
       y="129.68927"
       id="text1"
       transform="scale(0.99188007,1.0081864)"><tspan
         id="tspan1"
         style="font-style:normal;font-variant:normal;font-weight:normal;font-stretch:normal;font-size:16.9878px;font-family:Mokoto;-inkscape-font-specification:'Mokoto, Normal';font-variant-ligatures:normal;font-variant-caps:normal;font-variant-numeric:normal;font-variant-east-asian:normal;letter-spacing:1.59259px;fill:#313131;fill-opacity:1;stroke-width:0.286394"
         x="35.225525"
         y="129.68927">SPECTRE</tspan></text>
    <text
       xml:space="preserve"
       style="font-style:normal;font-variant:normal;font-weight:normal;font-stretch:normal;font-size:9.87778px;font-family:'SPACE ARMOR';-inkscape-font-specification:'SPACE ARMOR';letter-spacing:0.769938px;writing-mode:lr-tb;direction:ltr;fill:#d11818;fill-opacity:1;stroke-width:0.264583"
       x="9.3512859"
       y="141.12509"
       id="text2"><tspan
         id="tspan2"
         style="font-style:normal;font-variant:normal;font-weight:normal;font-stretch:normal;font-size:9.87778px;font-family:Speedy;-inkscape-font-specification:Speedy;letter-spacing:0.769938px;fill:#d11818;fill-opacity:1;stroke-width:0.264583"
         x="9.3512859"
         y="141.12509"
         rotate="0 0 0 0 0 0 0 0 0 0 0 0">ALLIANCE MANAGER</tspan></text>
  </g>
  <g
     id="layer2"
     transform="translate(-7.3550001e-5)">
    <g
       id="g10"
       transform="matrix(-1,0,0,1,149.96638,1.63e-4)">
      <path
         id="circle2"
         style="display:inline;fill:#313131;fill-opacity:1;stroke:none;stroke-width:0.264583;stroke-opacity:1"
         d="m 75.000073,44.999837 a 30,30 0 0 0 -6.845577,0.791683 c -3.510027,1.822415 -6.405573,2.527518 -8.145756,3.222542 a 30,30 0 0 0 -1.540991,0.952397 c -0.153518,0.200673 -0.235399,0.424915 -0.239262,0.685746 -0.310619,20.975854 7.3272,3.158717 7.995895,2.179712 1.572302,-1.867608 3.144581,-3.73506 5.669421,-4.051432 2.52484,-0.316373 8.202698,0.216989 10.024711,0.620634 1.340387,0.296947 6.000154,0.376712 8.39587,-0.197921 A 30,30 0 0 0 75.000073,44.999837 Z" />
      <path
         id="path2"
         style="display:inline;opacity:1;fill:#d11818;fill-opacity:1;stroke:none;stroke-width:0.264583;stroke-opacity:1"
         d="m 75.000073,44.999837 a 30,30 0 0 0 -18.777148,6.603215 c -0.188978,1.112818 -0.339752,2.261793 -0.49041,3.411161 -1.168576,8.069792 -2.336874,16.139633 -1.538407,19.835999 0.798467,3.696366 3.563685,3.019137 5.615678,-0.7028 2.051992,-3.721937 3.390664,-10.488421 4.206462,-14.446147 0.815799,-3.957725 1.108891,-5.106649 1.401981,-6.255432 0.837847,-2.293056 1.675886,-4.586267 3.939811,-5.747969 2.263925,-1.161703 5.953443,-1.191672 8.561235,-1.413351 1.57823,-0.134159 2.760225,-0.338694 2.665987,-0.76016 a 30,30 0 0 0 -5.585189,-0.524516 z" />
    </g>
    <g
       id="g11"
       transform="matrix(0,1,1,0,0.02253199,0.27430567)">
      <path
         id="path10"
         style="display:inline;fill:#313131;fill-opacity:1;stroke:none;stroke-width:0.264583;stroke-opacity:1"
         d="m 75.000073,44.999837 a 30,30 0 0 0 -6.845577,0.791683 c -3.510027,1.822415 -6.405573,2.527518 -8.145756,3.222542 a 30,30 0 0 0 -1.540991,0.952397 c -0.153518,0.200673 -0.235399,0.424915 -0.239262,0.685746 -0.310619,20.975854 7.3272,3.158717 7.995895,2.179712 1.572302,-1.867608 3.144581,-3.73506 5.669421,-4.051432 2.52484,-0.316373 8.202698,0.216989 10.024711,0.620634 1.340387,0.296947 6.000154,0.376712 8.39587,-0.197921 A 30,30 0 0 0 75.000073,44.999837 Z" />
      <path
         id="path11"
         style="display:inline;opacity:1;fill:#d11818;fill-opacity:1;stroke:none;stroke-width:0.264583;stroke-opacity:1"
         d="m 75.000073,44.999837 a 30,30 0 0 0 -18.777148,6.603215 c -0.188978,1.112818 -0.339752,2.261793 -0.49041,3.411161 -1.168576,8.069792 -2.336874,16.139633 -1.538407,19.835999 0.798467,3.696366 3.563685,3.019137 5.615678,-0.7028 2.051992,-3.721937 3.390664,-10.488421 4.206462,-14.446147 0.815799,-3.957725 1.108891,-5.106649 1.401981,-6.255432 0.837847,-2.293056 1.675886,-4.586267 3.939811,-5.747969 2.263925,-1.161703 5.953443,-1.191672 8.561235,-1.413351 1.57823,-0.134159 2.760225,-0.338694 2.665987,-0.76016 a 30,30 0 0 0 -5.585189,-0.524516 z" />
    </g>
    <g
       id="g13"
       transform="matrix(1,0,0,-1,-0.10019999,149.82128)"
       style="display:inline">
      <path
         id="path12"
         style="display:inline;fill:#313131;fill-opacity:1;stroke:none;stroke-width:0.264583;stroke-opacity:1"
         d="m 75.000073,44.999837 a 30,30 0 0 0 -6.845577,0.791683 c -3.510027,1.822415 -6.405573,2.527518 -8.145756,3.222542 a 30,30 0 0 0 -1.540991,0.952397 c -0.153518,0.200673 -0.235399,0.424915 -0.239262,0.685746 -0.310619,20.975854 7.3272,3.158717 7.995895,2.179712 1.572302,-1.867608 3.144581,-3.73506 5.669421,-4.051432 2.52484,-0.316373 8.202698,0.216989 10.024711,0.620634 1.340387,0.296947 6.000154,0.376712 8.39587,-0.197921 A 30,30 0 0 0 75.000073,44.999837 Z" />
      <path
         id="path13"
         style="display:inline;opacity:1;fill:#d11818;fill-opacity:1;stroke:none;stroke-width:0.264583;stroke-opacity:1"
         d="m 75.000073,44.999837 a 30,30 0 0 0 -18.777148,6.603215 c -0.188978,1.112818 -0.339752,2.261793 -0.49041,3.411161 -1.168576,8.069792 -2.336874,16.139633 -1.538407,19.835999 0.798467,3.696366 3.563685,3.019137 5.615678,-0.7028 2.051992,-3.721937 3.390664,-10.488421 4.206462,-14.446147 0.815799,-3.957725 1.108891,-5.106649 1.401981,-6.255432 0.837847,-2.293056 1.675886,-4.586267 3.939811,-5.747969 2.263925,-1.161703 5.953443,-1.191672 8.561235,-1.413351 1.57823,-0.134159 2.760225,-0.338694 2.665987,-0.76016 a 30,30 0 0 0 -5.585189,-0.524516 z" />
    </g>
    <g
       id="g15"
       transform="matrix(0,-1,-1,0,149.90861,149.88584)"
       style="display:inline">
      <path
         id="path14"
         style="display:inline;fill:#313131;fill-opacity:1;stroke:none;stroke-width:0.264583;stroke-opacity:1"
         d="m 75.000073,44.999837 a 30,30 0 0 0 -6.845577,0.791683 c -3.510027,1.822415 -6.405573,2.527518 -8.145756,3.222542 a 30,30 0 0 0 -1.540991,0.952397 c -0.153518,0.200673 -0.235399,0.424915 -0.239262,0.685746 -0.310619,20.975854 7.3272,3.158717 7.995895,2.179712 1.572302,-1.867608 3.144581,-3.73506 5.669421,-4.051432 2.52484,-0.316373 8.202698,0.216989 10.024711,0.620634 1.340387,0.296947 6.000154,0.376712 8.39587,-0.197921 A 30,30 0 0 0 75.000073,44.999837 Z" />
      <path
         id="path15"
         style="display:inline;opacity:1;fill:#d11818;fill-opacity:1;stroke:none;stroke-width:0.264583;stroke-opacity:1"
         d="m 75.000073,44.999837 a 30,30 0 0 0 -18.777148,6.603215 c -0.188978,1.112818 -0.339752,2.261793 -0.49041,3.411161 -1.168576,8.069792 -2.336874,16.139633 -1.538407,19.835999 0.798467,3.696366 3.563685,3.019137 5.615678,-0.7028 2.051992,-3.721937 3.390664,-10.488421 4.206462,-14.446147 0.815799,-3.957725 1.108891,-5.106649 1.401981,-6.255432 0.837847,-2.293056 1.675886,-4.586267 3.939811,-5.747969 2.263925,-1.161703 5.953443,-1.191672 8.561235,-1.413351 1.57823,-0.134159 2.760225,-0.338694 2.665987,-0.76016 a 30,30 0 0 0 -5.585189,-0.524516 z" />
    </g>
    <circle
       style="display:inline;fill:none;fill-opacity:1;stroke:#313131;stroke-width:2.499;stroke-linecap:butt;stroke-dasharray:2.499, 2.499;stroke-dashoffset:11.9952;stroke-opacity:1"
       id="path1"
       cx="75"
       cy="75"
       r="8" />
    <circle
       style="display:inline;fill:none;fill-opacity:1;stroke:#313131;stroke-width:0.565;stroke-dasharray:none;stroke-opacity:1"
       id="circle10"
       cx="75"
       cy="75"
       r="30" />
    <path
       id="path17"
       style="display:inline;opacity:1;fill:none;fill-opacity:1;stroke:#313131;stroke-width:0.6;stroke-dasharray:none;stroke-opacity:1"
       d="M 75.000073,38.752157 A 74.352036,45.247868 0 0 0 2.2954671,75.000073 74.352036,45.247868 0 0 0 75.000073,111.24799 74.352036,45.247868 0 0 0 147.70468,75.000073 74.352036,45.247868 0 0 0 75.000073,38.752157 Z" />
    <circle
       style="display:inline;fill:none;fill-opacity:1;stroke:#d11818;stroke-width:2.499;stroke-linecap:butt;stroke-dasharray:2.499, 2.499;stroke-dashoffset:14.4942;stroke-opacity:1"
       id="circle17"
       cx="75"
       cy="75"
       r="8" />
  </g>
</svg>
